Coordinates
version=1
nRows=12
nColumns=23
inDegrees=yes

Units are S.I. units (second, meters, Newtons, ...)
If the header above contains a line with 'inDegrees', this indicates whether rotational values are in degrees (yes) or radians (no).

endheader
time	pelvis_tilt	pelvis_list	pelvis_rotation	pelvis_tx	pelvis_ty	pelvis_tz	hip_flexion_r	hip_adduction_r	hip_rotation_r	knee_angle_r	knee_angle_r_beta	ankle_angle_r	subtalar_angle_r	mtp_angle_r	hip_flexion_l	hip_adduction_l	hip_rotation_l	knee_angle_l	knee_angle_l_beta	ankle_angle_l	subtalar_angle_l	mtp_angle_l
     22.50000000	    -18.18249691	      7.02514385	      6.84006481	      2.05585272	      0.87170632	      0.96203469	     30.67786411	    -10.65444479	     -1.14772220	    108.12177435	      1.88708096	    -14.52039702	    -24.63227678	      0.00000000	     34.52919756	     13.07036209	     -2.85342335	     48.43087629	      0.84527825	     23.10453310	    -15.28522744	      0.00000000
     22.50666667	    -18.17658907	      6.41315370	      6.75332331	      2.05498383	      0.87412215	      0.96186333	     33.67442160	     -9.98547517	     -0.80756694	    108.25960456	      1.88948655	    -13.94601336	    -24.48809838	      0.00000000	     31.81064384	     12.53782819	     -1.83521186	     47.30205228	      0.82557656	     23.70323143	    -14.92950261	      0.00000000
     22.51333333	    -18.27559075	      5.78612881	      6.47842411	      2.05426906	      0.87677204	      0.96196205	     36.72904840	     -9.17498353	     -0.42835028	    107.99582232	      1.88488268	    -13.17914331	    -24.22144642	      0.00000000	     29.13183839	     11.81138178	     -1.09382880	     45.92215111	      0.80149274	     24.06970745	    -14.50228399	      0.00000000
     22.52000000	    -18.06423395	      5.23854519	      5.52279498	      2.05381310	      0.88017159	      0.96324004	     39.47234386	     -7.83187092	      0.40169074	    107.34245411	      1.87347925	    -11.96577836	    -23.41466102	      0.00000000	     26.05375512	     10.57324962	     -1.47750473	     44.19658763	      0.77137597	     23.58877057	    -13.73093350	      0.00000000
     22.52666667	    -17.87349061	      4.49102289	      4.98829061	      2.05405577	      0.88406222	      0.96384523	     41.79539984	     -6.67362601	      0.49586453	    106.09766683	      1.85175361	    -11.05265529	    -23.16218852	      0.00000000	     22.87517252	      9.34079715	     -1.53809765	     42.24925730	      0.73738865	     23.04638082	    -12.55676396	      0.00000000
     22.53333333	    -18.00717056	      3.66952698	      4.54397778	      2.05439870	      0.88783728	      0.96432638	     44.25132628	     -5.50065048	      0.39617231	    104.45223431	      1.82303540	    -10.13068804	    -23.08473118	      0.00000000	     20.02513546	      8.08087041	     -1.63276853	     40.10650836	      0.69999062	     21.74374025	    -11.55289597	      0.00000000
     22.54000000	    -17.44248016	      2.47395959	      4.17953110	      2.05578389	      0.89296298	      0.96468432	     45.51306574	     -4.11310604	     -0.29635098	    102.18235449	      1.78341852	     -9.23727428	    -23.30989955	      0.00000000	     16.34094480	      6.33754814	     -1.81207025	     37.72031268	      0.65834365	     20.22298481	    -10.15518999	      0.00000000
     22.54666667	    -17.45337805	      1.51568307	      3.71696615	      2.05689669	      0.89728437	      0.96510169	     47.32600962	     -2.90791032	     -0.75919395	     99.73337660	      1.74067580	     -8.27874636	    -23.53073985	      0.00000000	     13.30599304	      4.87408125	     -2.30779982	     35.20212640	      0.61439301	     17.93074266	     -9.08168940	      0.00000000
     22.55333333	    -17.73873507	      0.70000084	      3.16383203	      2.05801261	      0.90119538	      0.96558195	     49.28461306	     -1.78791753	     -1.10542484	     97.04068057	      1.69367938	     -7.29335986	    -23.85480829	      0.00000000	     10.57979326	      3.59298792	     -3.05954048	     32.57514208	      0.56854348	     15.15374213	     -8.06210815	      0.00000000
     22.56000000	    -18.56549655	      0.09688610	      2.62275831	      2.05881827	      0.90419633	      0.96608086	     51.72530951	     -0.87204113	     -1.33967823	     94.19288299	      1.64397594	     -6.19478160	    -24.03734183	      0.00000000	      8.57502877	      2.56476633	     -4.07502611	     30.08975591	      0.52516531	     11.95842836	     -6.91859753	      0.00000000
     22.56666667	    -18.61910950	     -0.78767715	      2.07550263	      2.06046716	      0.90844825	      0.96647219	     52.94207681	      0.20216129	     -1.95878792	     90.82062639	      1.58511896	     -5.24902930	    -24.58350572	      0.00000000	      5.60419150	      1.33714362	     -4.84989306	     27.24056572	      0.47543756	      8.44438686	     -6.06967245	      0.00000000
     22.57333333	    -19.63880982	     -1.09289827	      1.38561273	      2.06131154	      0.91085293	      0.96712733	     55.25271414	      0.95638015	     -2.00634735	     87.51752915	      1.52746904	     -4.11128680	    -24.81152282	      0.00000000	      3.91585156	      0.71582251	     -6.14419688	     24.79394384	      0.43273595	      4.83197073	     -4.87071245	      0.00000000
